<?xml version="1.0" encoding="UTF-8"?>
<!DOCTYPE svg PUBLIC "-//W3C//DTD SVG 1.1//EN" "http://www.w3.org/Graphics/SVG/1.1/DTD/svg11.dtd">
<svg xmlns="http://www.w3.org/2000/svg" version="1.1" width="512px" height="512px" style="shape-rendering:geometricPrecision; text-rendering:geometricPrecision; image-rendering:optimizeQuality; fill-rule:evenodd; clip-rule:evenodd" xmlns:xlink="http://www.w3.org/1999/xlink">
<g><path style="opacity:0.963" fill="#000000" d="M 17.5,89.5 C 62.5012,89.3333 107.501,89.5 152.5,90C 165.16,95.3088 168.327,104.142 162,116.5C 159.9,119.467 157.066,121.3 153.5,122C 107.5,122.667 61.5,122.667 15.5,122C 4.30875,116.361 1.47542,107.861 7,96.5C 9.99784,93.2623 13.4978,90.9289 17.5,89.5 Z"/></g>
<g><path style="opacity:0.964" fill="#000000" d="M 310.5,89.5 C 379.42,89.3525 427.586,120.686 455,183.5C 472.013,234.262 464.513,280.929 432.5,323.5C 456.153,347.653 479.986,371.653 504,395.5C 509.802,409.899 505.136,418.565 490,421.5C 486.237,421.135 482.737,419.968 479.5,418C 455.986,394.319 432.32,370.819 408.5,347.5C 359.168,383.399 306.835,388.232 251.5,362C 192.155,326.127 167.655,273.627 178,204.5C 191.247,150.585 224.08,114.418 276.5,96C 287.794,92.8434 299.127,90.6767 310.5,89.5 Z M 311.5,122.5 C 365.058,122.348 402.558,146.681 424,195.5C 439.306,244.89 427.806,286.723 389.5,321C 349.103,350.227 306.77,353.227 262.5,330C 217.64,299.741 200.807,257.907 212,204.5C 223.939,166.895 248.439,141.395 285.5,128C 294.182,125.565 302.848,123.732 311.5,122.5 Z"/></g>
<g><path style="opacity:0.96" fill="#000000" d="M 17.5,217.5 C 48.1685,217.333 78.8351,217.5 109.5,218C 121.961,222.703 125.461,231.203 120,243.5C 117.736,246.433 114.902,248.6 111.5,250C 79.5,250.667 47.5,250.667 15.5,250C 4.30875,244.361 1.47542,235.861 7,224.5C 9.99784,221.262 13.4978,218.929 17.5,217.5 Z"/></g>
<g><path style="opacity:0.963" fill="#000000" d="M 17.5,345.5 C 62.5012,345.333 107.501,345.5 152.5,346C 165.16,351.309 168.327,360.142 162,372.5C 159.9,375.467 157.066,377.3 153.5,378C 107.5,378.667 61.5,378.667 15.5,378C 4.30875,372.361 1.47542,363.861 7,352.5C 9.99784,349.262 13.4978,346.929 17.5,345.5 Z"/></g>
</svg>
